<svg xmlns="http://www.w3.org/2000/svg" width="25.182" height="25.182" viewBox="0 0 25.182 25.182"><g transform="translate(0 0)"><path d="M23.493,11.793a12.7,12.7,0,0,0-4.582-4.7,12.084,12.084,0,0,0-6.32-1.731A12.086,12.086,0,0,0,6.271,7.1a12.7,12.7,0,0,0-4.582,4.7A12.869,12.869,0,0,0,0,18.271a12.755,12.755,0,0,0,2.4,7.587,12.355,12.355,0,0,0,6.205,4.663.72.72,0,0,0,.656-.117.665.665,0,0,0,.213-.5q0-.05-.008-.907t-.008-1.5l-.377.067a4.7,4.7,0,0,1-.91.059,6.768,6.768,0,0,1-1.139-.118,2.516,2.516,0,0,1-1.1-.5,2.131,2.131,0,0,1-.721-1.033l-.164-.387a4.219,4.219,0,0,0-.516-.857,1.993,1.993,0,0,0-.713-.639L3.7,24a1.215,1.215,0,0,1-.213-.2.925.925,0,0,1-.147-.235q-.049-.118.082-.194A1.04,1.04,0,0,1,3.9,23.3l.328.05a2.368,2.368,0,0,1,.812.4,2.687,2.687,0,0,1,.8.874,2.939,2.939,0,0,0,.91,1.05,1.9,1.9,0,0,0,1.074.361,4.551,4.551,0,0,0,.934-.084,3.206,3.206,0,0,0,.738-.252,2.75,2.75,0,0,1,.8-1.731,10.977,10.977,0,0,1-1.68-.3,6.6,6.6,0,0,1-1.541-.656,4.441,4.441,0,0,1-1.32-1.126,5.463,5.463,0,0,1-.861-1.765A8.587,8.587,0,0,1,4.557,17.6a4.971,4.971,0,0,1,1.3-3.462,4.622,4.622,0,0,1,.115-3.428,2.247,2.247,0,0,1,1.41.227,9.747,9.747,0,0,1,1.369.647q.435.268.7.454a11.561,11.561,0,0,1,6.3,0l.623-.4a8.731,8.731,0,0,1,1.508-.74,2.1,2.1,0,0,1,1.328-.185,4.577,4.577,0,0,1,.131,3.428,4.972,4.972,0,0,1,1.3,3.462,8.683,8.683,0,0,1-.336,2.529,5.25,5.25,0,0,1-.868,1.765,4.61,4.61,0,0,1-1.328,1.118,6.613,6.613,0,0,1-1.541.655,10.965,10.965,0,0,1-1.68.3,3.035,3.035,0,0,1,.852,2.386V29.9a.678.678,0,0,0,.205.5.7.7,0,0,0,.647.117,12.353,12.353,0,0,0,6.205-4.663,12.758,12.758,0,0,0,2.4-7.587A12.879,12.879,0,0,0,23.493,11.793Z" transform="translate(0 -5.365)" fill="#fff"/></g></svg>